<?xml version="1.0" standalone="no"?>
<!DOCTYPE svg PUBLIC "-//W3C//DTD SVG 20010904//EN"
 "http://www.w3.org/TR/2001/REC-SVG-20010904/DTD/svg10.dtd">
<svg version="1.0" xmlns="http://www.w3.org/2000/svg"
 width="300.000000pt" height="300.000000pt" viewBox="0 0 300.000000 300.000000"
 preserveAspectRatio="xMidYMid meet">
<metadata>
Created by potrace 1.10, written by Peter Selinger 2001-2011
</metadata>
<g transform="translate(0.000000,300.000000) scale(0.100000,-0.100000)"
fill="#000000" stroke="none">
<path d="M1380 2333 c-25 -8 -65 -28 -89 -44 -23 -17 -64 -40 -90 -53 -43 -22
-49 -23 -75 -9 -45 24 -125 28 -189 9 -51 -15 -57 -19 -57 -44 1 -67 71 -157
146 -188 19 -8 59 -14 90 -14 l56 0 -7 -67 c-3 -38 -20 -110 -36 -161 -36
-113 -38 -181 -6 -242 18 -36 50 -65 171 -154 136 -100 153 -110 200 -114 51
-4 52 -3 176 84 68 49 145 109 171 134 78 75 83 163 20 329 -11 29 -23 81 -26
117 -4 37 -12 64 -19 64 -20 -1 -93 -37 -102 -51 -11 -19 -22 -109 -13 -109 4
0 11 4 14 10 3 5 24 14 45 20 26 7 45 20 55 38 l16 27 -5 -37 c-2 -21 0 -40 5
-43 31 -20 -15 -175 -71 -236 l-39 -44 -1 36 c0 40 -25 73 -78 104 -18 11 -32
28 -32 38 0 10 18 49 40 86 22 37 40 71 40 76 0 17 -53 -41 -81 -90 -46 -79
-39 -107 33 -144 41 -20 68 -67 75 -129 6 -61 -4 -70 -99 -88 -94 -18 -150
-18 -239 1 -92 20 -103 28 -95 77 13 80 35 117 87 143 64 33 68 52 30 130 -38
77 -120 155 -180 174 -66 19 -74 65 -31 166 14 34 31 49 101 90 100 59 165 78
237 70 64 -6 101 -21 198 -78 63 -36 76 -48 94 -91 15 -32 21 -63 18 -92 l-3
-44 58 0 c117 0 227 97 227 199 0 28 -4 32 -57 47 -64 19 -144 15 -189 -9 -26
-14 -32 -13 -68 5 -22 11 -63 36 -92 55 -28 19 -73 41 -99 49 -62 18 -178 17
-235 -3z m-270 -140 c45 -14 51 -19 45 -37 -4 -12 -11 -43 -17 -69 -13 -57
-33 -71 -80 -55 -49 16 -90 50 -116 96 l-23 41 21 21 c25 25 96 27 170 3z
m920 6 c0 -5 4 -8 8 -5 4 2 14 1 22 -5 18 -10 5 -12 -80 -10 l-55 1 40 -16
c25 -9 54 -13 78 -10 47 8 48 -5 3 -50 -35 -35 -76 -43 -133 -28 -26 7 -31 24
-7 24 13 0 14 3 5 14 -10 12 -6 13 29 9 46 -6 50 -2 15 21 -24 16 -26 16 -51
-9 -30 -30 -44 -23 -47 21 -2 26 2 30 43 41 57 15 130 16 130 2z m-101 -153
c9 -11 9 -15 -1 -18 -21 -7 -48 3 -48 18 0 18 34 18 49 0z m-665 -145 c14 -15
14 -20 3 -29 -16 -14 -57 11 -57 34 0 20 34 17 54 -5z m516 5 c0 -16 -24 -38
-33 -30 -8 9 11 44 23 44 6 0 10 -6 10 -14z m-408 -123 c26 -48 20 -69 -25
-91 -37 -18 -67 -64 -67 -103 l0 -33 -28 27 c-61 59 -103 188 -77 238 8 14 11
37 8 50 l-6 24 25 -22 c13 -13 33 -23 44 -23 11 0 30 -7 43 -16 l23 -17 -6 44
-7 44 25 -40 c14 -22 36 -59 48 -82z m-147 -199 c14 -20 25 -51 25 -69 0 -18
9 -44 21 -59 31 -39 3 -33 -53 12 -26 20 -54 51 -63 69 -15 32 -21 100 -12
138 3 11 6 25 7 30 0 6 12 -11 25 -37 14 -26 36 -63 50 -84z m640 74 c8 -34 0
-90 -18 -124 -14 -28 -193 -172 -277 -223 -62 -37 -105 -28 -205 46 -65 49
-87 81 -42 64 12 -5 57 -14 100 -21 79 -13 188 -4 263 22 36 13 79 70 70 94
-6 16 80 162 96 163 4 1 10 -9 13 -21z"/>
<path d="M1354 2220 c-25 -5 -124 -66 -124 -76 0 -1 24 -15 53 -32 103 -58
190 -187 204 -302 4 -39 8 -48 15 -36 5 10 8 99 6 199 -3 202 -10 225 -70 246
-34 12 -39 12 -84 1z m100 -50 c18 -17 21 -35 24 -118 l2 -97 -27 35 c-38 48
-102 112 -138 137 -29 21 -29 22 -11 42 33 36 114 37 150 1z"/>
<path d="M1354 1606 c-6 -17 17 -66 41 -86 25 -21 70 -1 70 30 0 43 -97 92
-111 56z"/>
<path d="M1578 1599 c-44 -23 -52 -61 -18 -79 29 -15 58 -4 75 30 35 67 12 86
-57 49z"/>
<path d="M711 1054 c-92 -78 -38 -234 81 -234 37 0 88 17 88 30 0 15 -38 41
-45 31 -12 -20 -70 -12 -93 12 -60 64 3 171 79 133 25 -13 29 -12 45 5 9 11
15 21 13 23 -40 35 -126 35 -168 0z"/>
<path d="M930 950 l0 -130 85 0 c84 0 85 0 85 25 0 24 -3 25 -60 25 -60 0 -60
0 -60 30 0 29 1 30 50 30 47 0 50 2 50 26 0 24 -2 25 -47 23 -47 -3 -48 -3
-48 26 0 29 1 29 53 26 50 -2 52 -1 52 23 0 26 -1 26 -80 26 l-80 0 0 -130z"/>
<path d="M1164 950 l1 -130 28 0 c25 0 27 3 27 43 0 71 17 74 62 12 32 -45 44
-55 69 -55 16 0 29 3 29 6 0 4 -23 35 -51 71 l-51 65 47 59 46 59 -33 0 c-29
0 -38 -8 -73 -56 l-40 -55 -3 55 c-3 54 -4 56 -31 56 l-28 0 1 -130z"/>
<path d="M1441 1054 c-12 -15 -21 -35 -21 -44 0 -29 34 -62 81 -79 32 -12 44
-22 44 -36 0 -17 -7 -20 -40 -19 -22 0 -47 3 -55 7 -10 5 -20 0 -27 -13 -11
-17 -9 -21 17 -35 59 -31 145 -12 157 34 16 59 0 84 -67 106 -52 17 -67 36
-44 56 11 9 23 9 51 1 31 -10 38 -9 49 6 19 26 -9 42 -72 42 -45 0 -56 -4 -73
-26z"/>
<path d="M1684 958 c-27 -68 -50 -126 -52 -130 -2 -5 10 -8 26 -8 26 0 31 5
37 30 6 29 8 30 65 30 57 0 59 -1 65 -30 6 -25 11 -30 37 -30 20 0 29 4 25 13
-2 6 -26 65 -53 130 -44 107 -50 117 -74 117 -24 0 -30 -9 -76 -122z m97 7
l17 -45 -40 0 c-28 0 -38 4 -34 13 2 6 10 29 17 50 14 43 17 42 40 -18z"/>
<path d="M1950 950 l0 -130 25 0 c23 0 25 4 25 44 l0 44 55 4 c84 7 124 57 99
123 -11 28 -60 45 -134 45 l-70 0 0 -130z m151 64 c22 -26 -1 -49 -55 -52
l-46 -3 0 35 c0 36 0 36 44 36 28 0 48 -6 57 -16z"/>
<path d="M2240 950 l0 -130 28 0 27 0 0 130 0 130 -27 0 -28 0 0 -130z"/>
</g>
</svg>
